# xmcd
#
# Track frame offsets:
#	150
#	47230
#	76067
#	113580
#
# Disc length: 3148 seconds
#
# Revision: 1
# Processed by: cddbd v1.5.2PL0 Copyright (c) Steve Scherf et al.
# Submitted via: audiograbber 1.83.01
#
DISCID=240c4a04
DTITLE=Perttu Lipsanen - S
DYEAR=1998
DGENRE=Ambient
TTITLE0=Radiant Lines
TTITLE1=Atlantis
TTITLE2=A View
TTITLE3=Requiem
EXTD=TR.
EXTT0=
EXTT1=
EXTT2=
EXTT3=
PLAYORDER=
